<svg width="48" height="58" viewBox="0 0 48 58" fill="none" xmlns="http://www.w3.org/2000/svg">
<g clip-path="url(#clip0_79_45)">
<path d="M44.4022 12.1838L42.4365 10.4529L44.4022 8.72233C44.7079 8.4528 44.8124 8.03271 44.6689 7.65158C44.5247 7.27009 44.1684 7.02373 43.761 7.02373H35.6266V6.67418C35.6266 6.30182 35.3248 6 34.9525 6C34.5801 6 34.2783 6.30182 34.2783 6.67418V15.7666L28.7413 18.7732C28.7108 18.5297 28.6378 18.2903 28.5223 18.065L27.7422 16.5419C27.2066 15.496 25.92 15.0816 24.8749 15.6168L24.2716 15.9256C23.7648 16.1853 23.3897 16.6261 23.2149 17.168C23.0401 17.7095 23.0868 18.2868 23.3465 18.7932L24.1267 20.3167C24.3088 20.6722 24.578 20.9537 24.8945 21.1509C24.4804 21.7086 24.2839 22.3943 24.0817 23.1068L23.9364 23.6213C23.835 23.9796 24.0435 24.3523 24.4018 24.4534C24.4629 24.4709 24.5246 24.479 24.5853 24.479C24.8794 24.479 25.1497 24.2853 25.2339 23.988L25.3792 23.4746C25.6747 22.4326 25.8561 21.8746 26.4338 21.5608L27.4695 20.9983L27.5972 20.933C27.6397 20.9112 27.6793 20.8867 27.7197 20.8624L35.1009 16.8542C35.0542 17.7769 34.5576 18.6486 33.7399 19.1452L28.94 22.0616C28.9343 22.0648 28.9287 22.068 28.9235 22.0715L27.4295 22.979C27.1115 23.1724 27.0101 23.5872 27.2034 23.9055C27.3856 24.2056 27.7646 24.3123 28.0738 24.1617L26.9402 27.5884L26.1116 27.9281L23.8585 28.8515L24.5078 26.5563C24.6089 26.198 24.4007 25.8252 24.0424 25.7238C23.6838 25.622 23.3114 25.8309 23.21 26.1892L22.1841 29.817C22.1708 29.8636 22.162 29.9149 22.1599 29.9637L21.8914 34.8952C21.8834 35.0833 21.9234 35.4389 21.8363 35.6224L18.8547 41.8953H16.6879C15.4185 41.8953 14.386 42.9278 14.386 44.1969V46.1429C14.0954 46.0099 13.7729 45.9355 13.4328 45.9355H7.93024C6.6612 45.9355 5.6287 46.9676 5.6287 48.237V50.6516H4.01012C3.63776 50.6516 3.33594 50.9534 3.33594 51.3257C3.33594 51.6981 3.63776 51.9999 4.01012 51.9999H43.7603C44.1326 51.9999 44.4345 51.6981 44.4345 51.3257C44.4345 50.9534 44.1326 50.6516 43.7603 50.6516H42.0069V33.2742C42.0069 32.0052 40.9744 30.9727 39.7054 30.9727H35.6266V19.2112C36.3742 18.198 36.6511 16.87 36.304 15.608C36.2496 15.4097 36.1074 15.2469 35.9179 15.1665C35.8249 15.1268 35.7252 15.1093 35.6266 15.1132V13.8824H43.7606C44.1684 13.8824 44.5247 13.636 44.6685 13.2549C44.8124 12.8737 44.7079 12.4533 44.4022 12.1838ZM24.4983 17.5821C24.5625 17.3831 24.7001 17.221 24.8861 17.1259L25.4894 16.817C25.6031 16.7588 25.7245 16.731 25.8446 16.731C26.1288 16.731 26.4036 16.8865 26.5419 17.1564L27.3224 18.6799C27.5046 19.0357 27.3866 19.4671 27.0627 19.685L26.843 19.804L26.3794 20.0416C25.9958 20.2381 25.5234 20.0858 25.3269 19.7018L24.5464 18.1787C24.4513 17.9927 24.4341 17.7807 24.4983 17.5821ZM23.1436 42.1027C22.9145 41.9981 22.6653 41.9297 22.4035 41.9055L23.1436 40.9225V42.1027ZM26.3447 36.6703C26.6689 36.2818 26.7584 35.8281 26.8307 35.4624C26.849 35.3753 27.1817 33.5581 27.1817 33.5581C27.1817 33.5581 27.4965 33.7543 27.5295 33.7683C27.5523 33.7785 27.5684 33.801 27.5709 33.8273L27.9376 37.5554H25.6782L26.3447 36.6703ZM30.3315 32.9492L29.7622 37.5523H29.2923L28.9129 33.6953C28.8645 33.2012 28.562 32.7699 28.1187 32.5554L27.4407 32.1255L27.8924 29.6222C27.8924 29.6222 29.7952 31.8827 29.8394 31.9402C30.2332 32.4523 30.368 32.6572 30.3315 32.9492ZM23.0492 36.212C23.1854 35.8021 23.2486 35.3848 23.238 34.9605L23.483 30.4627L26.6012 29.1849L26.0344 32.3245C26.0327 32.3329 26.0309 32.3417 26.0299 32.3501L25.561 34.9461C25.4999 35.215 25.4466 35.6228 25.2788 35.8442L20.7231 41.8953H20.3476L23.0492 36.212ZM6.97706 48.2367C6.97706 47.7113 7.40452 47.2838 7.93024 47.2838H13.4328C13.9585 47.2838 14.3863 47.7113 14.3863 48.2367V50.6516H6.97706V48.2367ZM15.7344 48.2367V44.1969C15.7344 43.6711 16.1622 43.2437 16.6879 43.2437H22.1905C22.7162 43.2437 23.1436 43.6711 23.1436 44.1969V50.6516H15.7347V48.2367H15.7344ZM40.6586 33.2742V50.6516H33.2496V46.6093C33.2496 46.2369 32.9478 45.9351 32.5755 45.9351C32.2027 45.9351 31.9009 46.2369 31.9009 46.6093V50.6516H24.492V39.8566C24.492 39.3313 24.9195 38.9038 25.4452 38.9038H30.9477C31.4735 38.9038 31.9009 39.3313 31.9009 39.8566V43.2363C31.9009 43.6087 32.2027 43.9105 32.5751 43.9105C32.9478 43.9105 33.2493 43.6087 33.2493 43.2363V33.2742C33.2493 32.7485 33.6771 32.321 34.2028 32.321H34.9454C34.9475 32.321 34.95 32.3214 34.9525 32.3214C34.9546 32.3214 34.957 32.321 34.9591 32.321H39.705C40.2308 32.321 40.6586 32.7488 40.6586 33.2742ZM34.2028 30.9727C32.9338 30.9727 31.9013 32.0052 31.9013 33.2742V37.7629C31.6598 37.6527 31.3966 37.5828 31.1197 37.5625L31.6697 33.1152C31.7777 32.2484 31.3355 31.6739 30.9081 31.1179C30.8628 31.059 28.2423 27.9475 28.2423 27.9475L29.85 23.0868L34.2783 20.3964V30.9727H34.2028ZM35.6266 12.5337V8.37243H42.759L41.2229 9.725C41.0137 9.90925 40.8937 10.1746 40.8937 10.4532C40.8937 10.7319 41.0137 10.9972 41.2229 11.1814L42.759 12.534H35.6266V12.5337Z" fill="#ED1C24"/>
</g>
<defs>
<clipPath id="clip0_79_45">
<rect width="46" height="46" fill="white" transform="translate(1 6)"/>
</clipPath>
</defs>
</svg>
