<svg width="48" height="58" viewBox="0 0 48 58" fill="none" xmlns="http://www.w3.org/2000/svg">
<g clip-path="url(#clip0_80_261)">
<path d="M24.0081 6.00476C14.8053 6.00342 6.4879 11.489 2.86568 19.9491L2.579 20.0441L2.69015 20.3775C-2.07906 32.1402 3.59012 45.5419 15.3527 50.3111C18.1 51.425 21.0368 51.9968 24.0013 51.9952C36.7012 51.9971 46.9981 41.7033 47 29.0034C47.0019 16.3035 36.7081 6.00658 24.0081 6.00476ZM42.0453 40.5938L40.8645 39.4137V36.665C40.8658 36.5464 40.8396 36.4291 40.7878 36.3224L37.7985 30.3521V27.467C37.7985 27.2108 37.6706 26.9714 37.4574 26.8292L35.1578 25.2962C34.9776 25.1759 34.7549 25.1374 34.5446 25.1904L31.7285 25.8941L26.9984 23.8644L26.3476 19.3052L28.1512 17.5024H32.0228L33.3259 19.4608C33.4436 19.6369 33.629 19.7566 33.8379 19.7912L38.437 20.5577C38.5602 20.5784 38.6865 20.5683 38.8049 20.5285L43.0406 19.1166C46.5933 25.9342 46.2133 34.134 42.0453 40.5938ZM38.8838 13.5579L37.6375 14.3888L34.1629 13.6936L31.9086 12.9432C31.7707 12.8963 31.6221 12.8904 31.4809 12.9263L28.631 13.6384L27.3816 13.2222L28.3076 11.3703H30.8999C31.0188 11.3704 31.1361 11.3429 31.2425 11.2898L33.8946 9.96377C35.721 10.9171 37.4012 12.1274 38.8838 13.5579ZM15.6058 9.24938L17.4454 10.4758C17.5359 10.536 17.638 10.5762 17.7451 10.5938L21.4596 11.2132L21.097 12.2978L19.1616 12.9439C18.9883 13.0016 18.8412 13.1193 18.7469 13.2758L16.5455 16.9443L13.0096 19.066L7.79738 19.8103C7.41959 19.8637 7.13867 20.1869 7.13819 20.5684V22.8679C7.13819 23.0712 7.21905 23.2661 7.36277 23.4098L8.6712 24.7183V26.0351L5.48253 23.9088L4.32587 20.4389C6.52651 15.4106 10.56 11.4094 15.6058 9.24938ZM13.4235 34.3808L9.95893 33.6872L8.6712 31.1186V29.3173L11.5272 26.4613L12.5842 28.5761C12.714 28.8359 12.9797 29.0001 13.2702 29H18.2019L20.2784 32.4608C20.417 32.6914 20.6663 32.8324 20.9353 32.8325H23.0662L22.5296 35.5206L19.6277 38.4226C19.4836 38.5663 19.4026 38.7611 19.4023 38.9646V40.8808L16.6429 42.9504C16.4499 43.0952 16.3363 43.3223 16.3363 43.5636V46.3322L15.3827 46.0164L14.0367 42.6499V35.132C14.0368 34.7677 13.7804 34.4537 13.4235 34.3808ZM11.1194 46.1641C3.89232 40.7421 0.835966 31.3738 3.47505 22.733L4.11202 24.6431C4.16567 24.8048 4.27164 24.944 4.41325 25.0387L8.23429 27.5858L7.36277 28.458C7.21905 28.6018 7.13819 28.7967 7.13819 29V31.2995C7.13809 31.4184 7.16559 31.5357 7.21867 31.6421L8.75168 34.7081C8.85784 34.9199 9.05589 35.0707 9.28824 35.1167L12.5076 35.7598V42.7971C12.5075 42.8944 12.526 42.991 12.562 43.0815L14.095 46.914C14.1789 47.1234 14.3508 47.2852 14.5649 47.3563L16.8644 48.1228C16.9412 48.1488 17.0217 48.1623 17.1028 48.1626C17.5261 48.1626 17.8693 47.8194 17.8693 47.3961V43.9469L20.6287 41.8773C20.8217 41.7325 20.9353 41.5053 20.9353 41.2641V39.2819L23.7768 36.4405C23.8836 36.3334 23.9564 36.1971 23.986 36.0488L24.7525 32.2162C24.8355 31.8011 24.5663 31.3973 24.1511 31.3143C24.1018 31.3045 24.0516 31.2995 24.0013 31.2995H21.3692L19.2927 27.8387C19.1541 27.6081 18.9048 27.4671 18.6358 27.467H13.7439L12.4271 24.8248C12.3168 24.6042 12.1072 24.4502 11.8637 24.4109C11.6203 24.3688 11.3719 24.4491 11.1991 24.6255L10.2042 25.6166V24.4009C10.2042 24.1976 10.1233 24.0027 9.97963 23.859L8.6712 22.5506V21.233L13.3791 20.5607C13.4802 20.5461 13.5774 20.5114 13.665 20.4588L17.4975 18.1593C17.605 18.0947 17.6951 18.0046 17.7597 17.8971L19.9136 14.3076L21.944 13.63C22.1733 13.5548 22.3533 13.3749 22.4285 13.1455L23.195 10.846C23.3278 10.4441 23.1096 10.0105 22.7077 9.87773C22.6706 9.86546 22.6326 9.85608 22.594 9.84956L18.1575 9.10988L17.378 8.59019C22.2015 7.02019 27.4258 7.2145 32.1194 9.13824L30.719 9.8373H27.8339C27.5419 9.83567 27.2745 10.0001 27.144 10.2612L25.611 13.3272C25.4222 13.706 25.5761 14.1663 25.955 14.3552C25.9873 14.3713 26.0206 14.3851 26.0548 14.3965L28.3543 15.163C28.4923 15.2098 28.6408 15.2158 28.782 15.1798L31.6319 14.4678L33.7199 15.163C33.7498 15.1737 33.7805 15.182 33.8119 15.1875L37.6444 15.954C37.8437 15.9946 38.051 15.9538 38.22 15.8406L39.9646 14.677C40.8232 15.6333 41.5948 16.6643 42.2703 17.7576L38.4991 19.0147L34.4159 18.334L33.0668 16.3104C32.9254 16.0984 32.6878 15.9706 32.4329 15.9694H27.8339C27.6306 15.9694 27.4357 16.0502 27.292 16.1939L24.9924 18.4935C24.8217 18.6641 24.7413 18.9053 24.7755 19.1442L25.542 24.5098C25.5806 24.7751 25.755 25.0009 26.0019 25.1053L31.3675 27.4049C31.5212 27.4715 31.6927 27.4852 31.855 27.444L34.5922 26.7595L36.2654 27.877V30.533C36.2641 30.6516 36.2904 30.7689 36.3421 30.8756L39.3315 36.8459V39.7311C39.3315 39.9344 39.4123 40.1293 39.5561 40.273L41.1596 41.8773C34.048 51.3564 20.5985 53.2757 11.1194 46.1641Z" fill="#EC1C24"/>
</g>
<defs>
<clipPath id="clip0_80_261">
<rect width="46" height="46" fill="white" transform="translate(1 6)"/>
</clipPath>
</defs>
</svg>
