<svg width="48" height="58" viewBox="0 0 48 58" fill="none" xmlns="http://www.w3.org/2000/svg">
<path d="M42.7303 24.6423C42.7303 23.4733 42.2939 22.3551 41.5014 21.4933C40.8012 20.7322 40.5171 19.6686 40.7411 18.6483C40.9907 17.5113 40.8061 16.3298 40.221 15.3211C39.6351 14.311 38.6978 13.5606 37.5817 13.2079C36.587 12.8935 35.8046 12.1148 35.4887 11.1246C35.1343 10.0137 34.3803 9.08069 33.3656 8.49762C32.3524 7.91535 31.1656 7.73153 30.0229 7.97995C28.9979 8.20293 27.9293 7.92011 27.1646 7.22329C26.2989 6.43439 25.1753 6 24.0009 6C22.8265 6 21.703 6.43439 20.8372 7.22329C20.0725 7.92011 19.004 8.20311 17.9789 7.97995C16.8367 7.73171 15.6496 7.91526 14.6362 8.49762C13.6215 9.08069 12.8675 10.0137 12.5131 11.1247C12.1973 12.1149 11.4149 12.8935 10.4201 13.208C9.30394 13.5607 8.36666 14.3112 7.78077 15.3212C7.19578 16.3298 7.0111 17.5113 7.26068 18.6484C7.48471 19.6686 7.20056 20.7323 6.50049 21.4934C5.7079 22.3551 5.27148 23.4734 5.27148 24.6424C5.27148 25.8113 5.7079 26.9296 6.50049 27.7914C7.20056 28.5525 7.48471 29.6161 7.26068 30.6364C7.01101 31.7733 7.19569 32.955 7.78077 33.9635C8.36657 34.9735 9.30394 35.7241 10.4201 36.0768C10.7432 36.1789 11.0433 36.3307 11.3128 36.5221L8.24146 43.9025C7.76371 45.0506 7.94252 46.3168 8.71976 47.2892C9.49701 48.2617 10.696 48.7199 11.9277 48.5146C13.8489 48.1946 15.821 49.0075 16.952 50.5861C17.5987 51.4887 18.6023 52 19.6921 52C19.8239 52 19.9571 51.9925 20.0908 51.9774C21.3313 51.8368 22.3572 51.0673 22.835 49.9192L24.001 47.1173L25.167 49.9192C25.6448 51.0673 26.6707 51.8368 27.9112 51.9774C28.0449 51.9925 28.1781 52 28.3099 52C29.3996 52 30.4032 51.4887 31.0499 50.5861C32.1809 49.0074 34.1534 48.1945 36.0743 48.5146C37.3053 48.7197 38.5048 48.2618 39.2821 47.2892C40.0593 46.3167 40.2382 45.0506 39.7604 43.9025C39.6173 43.5587 39.2213 43.3954 38.8759 43.5378C38.5305 43.6802 38.3664 44.0744 38.5095 44.4182C38.7962 45.107 38.6888 45.8667 38.2225 46.4503C37.7562 47.0338 37.0371 47.3088 36.2978 47.1855C33.8702 46.7808 31.377 47.8084 29.9475 49.8036C29.5125 50.4108 28.8085 50.723 28.0642 50.6384C27.3199 50.5541 26.7045 50.0925 26.4177 49.4036L24.7337 45.3567L25.7333 42.9546C26.2558 42.7477 26.7412 42.4473 27.1646 42.0615C27.9293 41.3646 28.9981 41.082 30.0229 41.3048C31.1656 41.5534 32.3525 41.3694 33.3656 40.7871C34.3803 40.2041 35.1344 39.271 35.4887 38.1601C35.5441 37.9865 35.6146 37.8198 35.6972 37.6605L37.4732 41.9281C37.5812 42.1876 37.8332 42.3443 38.0989 42.3443C38.1852 42.3443 38.2731 42.3278 38.3577 42.2928C38.7032 42.1504 38.8672 41.7562 38.7241 41.4124L36.689 36.5221C36.9585 36.3307 37.2587 36.1789 37.5817 36.0768C38.6978 35.7241 39.6351 34.9736 40.221 33.9635C40.806 32.9549 40.9907 31.7733 40.7411 30.6364C40.5171 29.616 40.8012 28.5524 41.5014 27.7913C42.2939 26.9295 42.7303 25.8112 42.7303 24.6423ZM21.5841 49.4034C21.2974 50.0923 20.6819 50.5539 19.9375 50.6383C19.1936 50.7228 18.4893 50.4106 18.0543 49.8035C16.6248 47.8084 14.1326 46.7807 11.704 47.1854C10.9657 47.3084 10.2457 47.0337 9.77935 46.4501C9.31296 45.8666 9.20573 45.1069 9.4924 44.418L12.3046 37.6604C12.3873 37.8196 12.4578 37.9862 12.5132 38.1598C12.8676 39.2708 13.6216 40.2037 14.6363 40.7869C15.6496 41.3691 16.8367 41.553 17.979 41.3045C19.0039 41.0814 20.0726 41.3644 20.8373 42.0612C21.703 42.8501 22.8266 43.2845 24.001 43.2845C24.0447 43.2845 24.0882 43.2827 24.1318 43.2814L21.5841 49.4034ZM40.5026 26.8812C39.5058 27.965 39.1005 29.4763 39.4183 30.9241C39.5958 31.7324 39.4644 32.5725 39.0484 33.2897C38.6318 34.008 37.9653 34.5416 37.1719 34.7923C35.7585 35.239 34.6468 36.3455 34.1983 37.7522C33.9463 38.5421 33.4102 39.2054 32.6885 39.62C31.9681 40.0341 31.1239 40.1648 30.3119 39.9882C28.8576 39.6718 27.3391 40.0752 26.2503 41.0674C25.6348 41.6282 24.8359 41.9371 24.0008 41.9371C23.1657 41.9371 22.3668 41.6282 21.7514 41.0674C20.9067 40.2979 19.8039 39.8825 18.6728 39.8825C18.3457 39.8825 18.016 39.9173 17.6897 39.9883C16.8775 40.165 16.0335 40.0342 15.313 39.6201C14.5914 39.2054 14.0553 38.5421 13.8034 37.7523C13.3547 36.3455 12.243 35.239 10.8297 34.7924C10.0362 34.5417 9.36983 34.0081 8.95318 33.2898C8.53716 32.5727 8.40583 31.7326 8.58328 30.9242C8.90119 29.4766 8.49582 27.9652 7.49906 26.8814C6.93555 26.2689 6.62532 25.4737 6.62532 24.6425C6.62532 23.8112 6.93555 23.0161 7.49906 22.4035C8.49582 21.3197 8.90119 19.8083 8.58328 18.3607C8.40583 17.5524 8.53716 16.7123 8.95318 15.9951C9.36983 15.2768 10.0362 14.7432 10.8297 14.4924C12.243 14.0458 13.3547 12.9393 13.8034 11.5326C14.0553 10.7428 14.5914 10.0795 15.313 9.66476C16.0336 9.25068 16.8776 9.12005 17.6896 9.29659C19.1438 9.61283 20.6625 9.20953 21.7513 8.2174C22.3667 7.65651 23.1656 7.34773 24.0007 7.34773C24.8358 7.34773 25.6348 7.6566 26.2502 8.2174C27.339 9.20962 28.8576 9.6131 30.3119 9.29668C31.1236 9.11996 31.968 9.25077 32.6885 9.66485C33.41 10.0795 33.9463 10.7429 34.1982 11.5326C34.6468 12.9393 35.7584 14.0458 37.1719 14.4925C37.9653 14.7433 38.6317 15.2769 39.0483 15.9951C39.4642 16.7124 39.5956 17.5525 39.4182 18.3608C39.1004 19.8085 39.5058 21.3198 40.5025 22.4035C41.0659 23.0161 41.3763 23.8112 41.3763 24.6425C41.3763 25.4737 41.066 26.2687 40.5026 26.8812Z" fill="#EC1C24"/>
<path d="M24.001 11.9896C21.1358 11.9896 18.3241 12.9698 16.0837 14.7497C15.7915 14.9818 15.7437 15.4058 15.9769 15.6967C16.2101 15.9875 16.636 16.0351 16.9284 15.803C18.9588 14.1899 21.4045 13.3373 24.0011 13.3373C30.2639 13.3373 35.359 18.4088 35.359 24.6424C35.359 30.876 30.2639 35.9475 24.0011 35.9475C17.7383 35.9475 12.643 30.8761 12.643 24.6424C12.643 22.0579 13.4996 19.6235 15.1202 17.6025C15.3535 17.3117 15.3056 16.8876 15.0135 16.6555C14.7213 16.4233 14.2952 16.471 14.062 16.7618C12.2738 18.9918 11.2891 21.7905 11.2891 24.6423C11.2891 31.6191 16.9916 37.2951 24.0009 37.2951C31.0102 37.2951 36.7128 31.619 36.7128 24.6423C36.7128 17.6656 31.0103 11.9896 24.001 11.9896Z" fill="#EC1C24"/>
<path d="M28.135 17.1773C27.452 16.4267 26.2826 16.3671 25.5282 17.0446L21.7336 20.4529C21.3475 20.056 20.8072 19.8086 20.2097 19.8086H18.2221C17.0518 19.8086 16.0996 20.7563 16.0996 21.9212V28.7554C16.0996 29.9203 17.0518 30.868 18.2221 30.868H20.2097C20.7321 30.868 21.2108 30.6788 21.5809 30.3661C22.0824 30.6925 22.6682 30.868 23.2813 30.868H28.7792C30.4976 30.868 31.8954 29.4766 31.8954 27.7663V23.4415C31.8954 21.7312 30.4976 20.3398 28.7792 20.3398H27.6659L28.2631 19.4819C28.7578 18.7717 28.7038 17.8026 28.135 17.1773ZM20.2098 29.5204H18.2222C17.7984 29.5204 17.4536 29.1772 17.4536 28.7554V21.9212C17.4536 21.4994 17.7984 21.1562 18.2222 21.1562H20.2098C20.6336 21.1562 20.9784 21.4994 20.9784 21.9212V28.7554C20.9783 29.1772 20.6336 29.5204 20.2098 29.5204ZM28.7793 21.6874C29.7511 21.6874 30.5416 22.4743 30.5416 23.4415V27.7662C30.5416 28.7334 29.751 29.5203 28.7793 29.5203H23.2814C22.919 29.5203 22.5738 29.4112 22.2821 29.2102C22.3146 29.0636 22.3322 28.9115 22.3322 28.7554V21.9212C22.3322 21.8595 22.3289 21.7985 22.3237 21.738L26.4351 18.0452C26.6362 17.8647 26.9486 17.8811 27.1313 18.082C27.2822 18.2478 27.2902 18.5136 27.1505 18.7143L25.8168 20.6298C25.6733 20.8359 25.6567 21.1041 25.7735 21.3262C25.8904 21.5483 26.1214 21.6875 26.3733 21.6875H28.7793V21.6874Z" fill="#EC1C24"/>
</svg>
