<svg width="48" height="58" viewBox="0 0 48 58" fill="none" xmlns="http://www.w3.org/2000/svg">
<path d="M24 20.375C23.0049 20.375 22.0322 20.0799 21.2048 19.5271C20.3774 18.9742 19.7325 18.1885 19.3517 17.2691C18.9709 16.3498 18.8713 15.3382 19.0654 14.3622C19.2596 13.3862 19.7387 12.4898 20.4424 11.7861C21.146 11.0825 22.0425 10.6033 23.0185 10.4092C23.9944 10.215 25.006 10.3147 25.9254 10.6955C26.8447 11.0763 27.6305 11.7212 28.1833 12.5485C28.7362 13.3759 29.0313 14.3487 29.0313 15.3438C29.0297 16.6777 28.4992 17.9565 27.556 18.8997C26.6127 19.8429 25.3339 20.3735 24 20.375ZM24 11.75C23.2892 11.75 22.5944 11.9608 22.0034 12.3557C21.4124 12.7505 20.9518 13.3118 20.6798 13.9685C20.4078 14.6252 20.3366 15.3477 20.4753 16.0449C20.614 16.742 20.9562 17.3823 21.4588 17.8849C21.9614 18.3875 22.6018 18.7298 23.2989 18.8684C23.996 19.0071 24.7186 18.9359 25.3753 18.6639C26.0319 18.3919 26.5932 17.9313 26.9881 17.3403C27.383 16.7493 27.5938 16.0545 27.5938 15.3438C27.5926 14.391 27.2136 13.4776 26.5399 12.8038C25.8662 12.1301 24.9528 11.7511 24 11.75Z" fill="#EC1C24"/>
<path d="M29.749 28.2813H28.3115V24.6876C28.3125 24.4989 28.3877 24.3182 28.5207 24.1844L38.1196 14.5223C38.2823 14.3585 38.3736 14.1371 38.3736 13.9063C38.3736 13.6755 38.2823 13.4541 38.1196 13.2903C37.9666 13.1377 37.762 13.0481 37.5461 13.0392C37.3302 13.0303 37.1188 13.1027 36.9538 13.2422L32.0332 17.4231C29.79 19.3288 26.9424 20.3751 23.999 20.3751C21.0556 20.3751 18.2081 19.3288 15.9649 17.4231L11.0443 13.2422C10.8733 13.0956 10.652 13.0214 10.4272 13.0353C10.2025 13.0492 9.99194 13.1501 9.84032 13.3166C9.68869 13.4831 9.60787 13.7021 9.61499 13.9272C9.62212 14.1522 9.71663 14.3657 9.87848 14.5223L19.4774 24.1844C19.6104 24.3182 19.6856 24.4989 19.6865 24.6876V28.2813H18.249V24.9844L8.8593 15.5364C8.43871 15.1162 8.1968 14.5498 8.18412 13.9554C8.17144 13.361 8.38898 12.7847 8.79126 12.347C9.19355 11.9093 9.74945 11.6439 10.3428 11.6065C10.9361 11.5691 11.521 11.7624 11.9751 12.1461L16.8956 16.3278C18.879 18.0126 21.3967 18.9377 23.999 18.9377C26.6014 18.9377 29.1191 18.0126 31.1025 16.3278L36.023 12.1461C36.4771 11.7624 37.062 11.5691 37.6553 11.6065C38.2486 11.6439 38.8045 11.9093 39.2068 12.347C39.6091 12.7847 39.8267 13.361 39.814 13.9554C39.8013 14.5498 39.5594 15.1162 39.1388 15.5364L29.749 24.9844V28.2813Z" fill="#EC1C24"/>
<path d="M24 47.6875C18.1221 47.6875 16.4725 46.2083 16.3043 46.0394C16.1695 45.9046 16.0938 45.7219 16.0938 45.5312V42.6562C16.0953 41.3223 16.6258 40.0435 17.5691 39.1003C18.5123 38.1571 19.7911 37.6265 21.125 37.625H26.875C28.2089 37.6265 29.4877 38.1571 30.431 39.1003C31.3742 40.0435 31.9047 41.3223 31.9062 42.6562V45.5312C31.9062 45.7219 31.8305 45.9046 31.6957 46.0394C31.5275 46.2083 29.8779 47.6875 24 47.6875ZM17.5312 45.1611C18.0897 45.4817 19.8586 46.25 24 46.25C28.1228 46.25 29.8937 45.4881 30.4688 45.1575V42.6562C30.4676 41.7035 30.0886 40.7901 29.4149 40.1163C28.7412 39.4426 27.8278 39.0636 26.875 39.0625H21.125C20.1722 39.0636 19.2588 39.4426 18.5851 40.1163C17.9114 40.7901 17.5324 41.7035 17.5312 42.6562V45.1611Z" fill="#EC1C24"/>
<path d="M24 39.0625C23.0049 39.0625 22.0322 38.7674 21.2048 38.2146C20.3774 37.6617 19.7325 36.876 19.3517 35.9566C18.9709 35.0373 18.8713 34.0257 19.0654 33.0497C19.2596 32.0737 19.7387 31.1773 20.4424 30.4736C21.146 29.77 22.0425 29.2908 23.0185 29.0967C23.9944 28.9025 25.006 29.0022 25.9254 29.383C26.8447 29.7638 27.6305 30.4087 28.1833 31.236C28.7362 32.0634 29.0313 33.0362 29.0313 34.0313C29.0297 35.3652 28.4992 36.644 27.556 37.5872C26.6127 38.5304 25.3339 39.061 24 39.0625ZM24 30.4375C23.2892 30.4375 22.5944 30.6483 22.0034 31.0432C21.4124 31.438 20.9518 31.9993 20.6798 32.656C20.4078 33.3127 20.3366 34.0352 20.4753 34.7324C20.614 35.4295 20.9562 36.0698 21.4588 36.5724C21.9614 37.075 22.6018 37.4173 23.2989 37.5559C23.996 37.6946 24.7186 37.6234 25.3753 37.3514C26.0319 37.0794 26.5932 36.6188 26.9881 36.0278C27.383 35.4368 27.5938 34.742 27.5938 34.0313C27.5926 33.0785 27.2136 32.1651 26.5399 31.4913C25.8662 30.8176 24.9528 30.4386 24 30.4375Z" fill="#EC1C24"/>
<path d="M37.6554 45.5313C36.1647 45.5486 34.6757 45.4266 33.2077 45.1668L33.478 43.7552C34.857 43.9972 36.2554 44.1105 37.6554 44.0938C41.7781 44.0938 43.5491 43.3319 44.1241 43.0013V40.5C44.123 39.5472 43.744 38.6338 43.0703 37.9601C42.3966 37.2864 41.4831 36.9074 40.5304 36.9063H34.7804C34.1872 36.9058 33.6032 37.0524 33.0806 37.3328C32.5579 37.6133 32.1129 38.0189 31.7853 38.5134L30.5879 37.7177C31.0464 37.0256 31.6694 36.4579 32.401 36.0654C33.1326 35.673 33.9501 35.468 34.7804 35.4688H40.5304C41.8643 35.4703 43.1431 36.0008 44.0863 36.9441C45.0295 37.8873 45.5601 39.1661 45.5616 40.5V43.375C45.5616 43.5656 45.4858 43.7484 45.351 43.8832C45.1828 44.0521 43.5333 45.5313 37.6554 45.5313Z" fill="#EC1C24"/>
<path d="M37.6563 36.9063C36.6612 36.9063 35.6884 36.6112 34.861 36.0583C34.0337 35.5055 33.3888 34.7197 33.008 33.8004C32.6272 32.881 32.5275 31.8694 32.7217 30.8935C32.9158 29.9175 33.395 29.021 34.0986 28.3174C34.8023 27.6137 35.6987 27.1346 36.6747 26.9404C37.6507 26.7463 38.6623 26.8459 39.5816 27.2267C40.501 27.6075 41.2867 28.2524 41.8396 29.0798C42.3924 29.9072 42.6875 30.8799 42.6875 31.875C42.686 33.2089 42.1554 34.4877 41.2122 35.431C40.269 36.3742 38.9902 36.9047 37.6563 36.9063ZM37.6563 28.2813C36.9455 28.2813 36.2507 28.492 35.6597 28.8869C35.0687 29.2818 34.6081 29.8431 34.3361 30.4997C34.0641 31.1564 33.9929 31.879 34.1316 32.5761C34.2702 33.2732 34.6125 33.9136 35.1151 34.4162C35.6177 34.9188 36.258 35.261 36.9551 35.3997C37.6523 35.5384 38.3748 35.4672 39.0315 35.1952C39.6882 34.9232 40.2495 34.4626 40.6443 33.8716C41.0392 33.2806 41.25 32.5858 41.25 31.875C41.2489 30.9222 40.8699 30.0088 40.1962 29.3351C39.5224 28.6614 38.609 28.2824 37.6563 28.2813Z" fill="#EC1C24"/>
<path d="M10.3437 45.5313C4.46581 45.5313 2.81628 44.0521 2.64809 43.8832C2.51329 43.7484 2.43754 43.5656 2.4375 43.375V40.5C2.43902 39.1661 2.96959 37.8873 3.9128 36.9441C4.85601 36.0008 6.13485 35.4703 7.46875 35.4688H13.2187C14.049 35.468 14.8665 35.673 15.5981 36.0654C16.3297 36.4579 16.9527 37.0256 17.4112 37.7177L16.2138 38.5134C15.8862 38.0189 15.4412 37.6133 14.9186 37.3328C14.3959 37.0524 13.8119 36.9058 13.2187 36.9063H7.46875C6.51598 36.9074 5.60256 37.2864 4.92885 37.9601C4.25513 38.6338 3.87614 39.5472 3.875 40.5V43.0048C4.43347 43.3254 6.20231 44.0938 10.3437 44.0938C11.7437 44.1105 13.1422 43.9972 14.5211 43.7552L14.7914 45.1668C13.3234 45.4266 11.8344 45.5486 10.3437 45.5313Z" fill="#EC1C24"/>
<path d="M10.3438 36.9063C9.34867 36.9063 8.37592 36.6112 7.54854 36.0583C6.72116 35.5055 6.07629 34.7197 5.69548 33.8004C5.31468 32.881 5.21504 31.8694 5.40918 30.8935C5.60331 29.9175 6.08249 29.021 6.78612 28.3174C7.48975 27.6137 8.38624 27.1346 9.3622 26.9404C10.3382 26.7463 11.3498 26.8459 12.2691 27.2267C13.1885 27.6075 13.9742 28.2524 14.5271 29.0798C15.0799 29.9072 15.375 30.8799 15.375 31.875C15.3735 33.2089 14.8429 34.4877 13.8997 35.431C12.9565 36.3742 11.6777 36.9047 10.3438 36.9063ZM10.3438 28.2813C9.63298 28.2813 8.93816 28.492 8.34717 28.8869C7.75618 29.2818 7.29556 29.8431 7.02356 30.4997C6.75156 31.1564 6.68039 31.879 6.81905 32.5761C6.95772 33.2732 7.29999 33.9136 7.80259 34.4162C8.30518 34.9188 8.94553 35.261 9.64265 35.3997C10.3398 35.5384 11.0623 35.4672 11.719 35.1952C12.3757 34.9232 12.937 34.4626 13.3318 33.8716C13.7267 33.2806 13.9375 32.5858 13.9375 31.875C13.9364 30.9222 13.5574 30.0088 12.8837 29.3351C12.2099 28.6614 11.2965 28.2824 10.3438 28.2813Z" fill="#EC1C24"/>
</svg>
