<svg width="152" height="33" viewBox="0 0 152 33" fill="none" xmlns="http://www.w3.org/2000/svg">
<g clip-path="url(#clip0_1_10)">
<path fill-rule="evenodd" clip-rule="evenodd" d="M36.548 0.00261019L47.0549 11.7415V0.00261019H50.7324V15.0581C50.7324 16.4496 49.7908 17.3023 48.5615 17.3023H48.3575H47.0575L36.5506 5.58957V17.3023H32.9515H32.873H19.6459H17.5377H15.9683V6.92091H16.6536H19.6459H31.0578L27.9164 10.5985H19.6485V13.6273H32.8756V2.24681C32.8756 0.855305 33.8173 0.00261019 35.0466 0.00261019H35.2062H36.548ZM70.5405 0.00261019H87.6492L84.5079 3.68017H70.5405V15.0607C70.5405 16.4522 69.5989 17.3049 68.3695 17.3049H68.1655H66.8655L56.3586 5.59218V17.3049H52.6811V2.24943C52.6811 0.857923 53.6227 0.00522835 54.852 0.00522835H55.0116H56.356L66.8629 11.7441V0.00522835H67.8883H70.5405V0.00261019ZM103.704 0.00261019H100.497H96.8196H89.4985L92.6398 3.68017H96.8169V13.6273H76.2347V10.5985H84.5026L87.644 6.92091H76.2321H73.2398H72.5545V17.3023H74.1239H76.2321H96.8143H98.6976H100.492V3.67755H103.699V17.3023H107.376V10.4912H114.26V17.3023H117.938V0H114.26V6.81106H107.376V0H103.897H103.704V0.00261019ZM0 0.00261019H3.67755V6.92353H4.55117L11.1294 0.0366144L11.1347 0.00261019H11.1634H30.8956H31.0578L27.9164 3.68017H27.7543H12.1888L7.42311 8.70214L15.5891 17.3049H14.6893H11.9063H11.0039L4.52763 10.4808H3.67494V17.3049H0V0.00261019Z" fill="#ED1C24"/>
<path d="M32.1911 20.2965H35.4388C36.1712 20.2965 36.7295 20.3525 37.1137 20.4646C37.6299 20.6166 38.0722 20.8868 38.4403 21.275C38.8085 21.6632 39.0887 22.1394 39.2808 22.7037C39.4729 23.264 39.5689 23.9564 39.5689 24.7808C39.5689 25.5052 39.4789 26.1295 39.2988 26.6538C39.0787 27.2941 38.7645 27.8124 38.3563 28.2086C38.0481 28.5088 37.6319 28.7429 37.1076 28.911C36.7154 29.035 36.1912 29.0971 35.5348 29.0971H32.1911V20.2965ZM33.968 21.7853V27.6143H35.2947C35.791 27.6143 36.1491 27.5863 36.3693 27.5303C36.6574 27.4582 36.8955 27.3362 37.0836 27.1641C37.2757 26.992 37.4318 26.7098 37.5519 26.3176C37.6719 25.9214 37.732 25.3831 37.732 24.7028C37.732 24.0224 37.6719 23.5001 37.5519 23.136C37.4318 22.7718 37.2637 22.4876 37.0476 22.2835C36.8315 22.0794 36.5574 21.9413 36.2252 21.8693C35.9771 21.8133 35.4908 21.7853 34.7664 21.7853H33.968ZM41.0817 29.0971V20.2965H47.6071V21.7853H42.8587V23.7363H47.277V25.219H42.8587V27.6143H47.7752V29.0971H41.0817ZM48.8318 26.2336L50.5607 26.0655C50.6647 26.6458 50.8748 27.072 51.191 27.3442C51.5112 27.6163 51.9414 27.7524 52.4817 27.7524C53.054 27.7524 53.4842 27.6323 53.7724 27.3922C54.0645 27.1481 54.2106 26.8639 54.2106 26.5397C54.2106 26.3316 54.1486 26.1555 54.0245 26.0115C53.9044 25.8634 53.6923 25.7353 53.3882 25.6273C53.1801 25.5552 52.7058 25.4272 51.9654 25.2431C51.0129 25.0069 50.3446 24.7168 49.9604 24.3726C49.4201 23.8884 49.1499 23.298 49.1499 22.6017C49.1499 22.1534 49.276 21.7352 49.5281 21.347C49.7843 20.9548 50.1505 20.6567 50.6267 20.4526C51.107 20.2484 51.6853 20.1464 52.3616 20.1464C53.4662 20.1464 54.2966 20.3885 54.8529 20.8728C55.4132 21.357 55.7074 22.0034 55.7354 22.8118L53.9585 22.8898C53.8824 22.4376 53.7183 22.1134 53.4662 21.9173C53.2181 21.7172 52.8439 21.6172 52.3436 21.6172C51.8273 21.6172 51.4231 21.7232 51.131 21.9353C50.9429 22.0714 50.8488 22.2535 50.8488 22.4816C50.8488 22.6897 50.9369 22.8678 51.113 23.0159C51.3371 23.204 51.8814 23.4001 52.7458 23.6042C53.6103 23.8083 54.2486 24.0204 54.6608 24.2405C55.077 24.4566 55.4012 24.7548 55.6333 25.135C55.8695 25.5112 55.9875 25.9774 55.9875 26.5337C55.9875 27.038 55.8475 27.5102 55.5673 27.9505C55.2872 28.3907 54.891 28.7189 54.3787 28.935C53.8664 29.1471 53.2281 29.2532 52.4637 29.2532C51.3511 29.2532 50.4967 28.997 49.9003 28.4848C49.304 27.9685 48.9478 27.2181 48.8318 26.2336ZM57.4283 29.0971V20.2965H59.2052V29.0971H57.4283ZM64.9982 25.8614V24.3786H68.8282V27.8844C68.456 28.2446 67.9158 28.5628 67.2074 28.8389C66.503 29.1111 65.7886 29.2472 65.0643 29.2472C64.1438 29.2472 63.3414 29.0551 62.657 28.6709C61.9727 28.2827 61.4584 27.7304 61.1142 27.014C60.77 26.2936 60.5979 25.5112 60.5979 24.6668C60.5979 23.7503 60.79 22.9359 61.1742 22.2235C61.5584 21.5111 62.1207 20.9648 62.8611 20.5846C63.4254 20.2925 64.1278 20.1464 64.9682 20.1464C66.0608 20.1464 66.9132 20.3765 67.5256 20.8368C68.1419 21.293 68.5381 21.9253 68.7142 22.7337L66.9493 23.0639C66.8252 22.6317 66.5911 22.2915 66.2469 22.0434C65.9067 21.7913 65.4805 21.6652 64.9682 21.6652C64.1918 21.6652 63.5735 21.9113 63.1132 22.4036C62.657 22.8958 62.4289 23.6262 62.4289 24.5947C62.4289 25.6393 62.661 26.4237 63.1253 26.948C63.5895 27.4682 64.1978 27.7284 64.9502 27.7284C65.3224 27.7284 65.6946 27.6563 66.0668 27.5122C66.443 27.3642 66.7652 27.1861 67.0333 26.978V25.8614H64.9982ZM70.4911 29.0971V20.2965H72.22L75.8219 26.1735V20.2965H77.4728V29.0971H75.6898L72.142 23.3581V29.0971H70.4911ZM78.9075 26.2336L80.6364 26.0655C80.7405 26.6458 80.9506 27.072 81.2667 27.3442C81.5869 27.6163 82.0171 27.7524 82.5574 27.7524C83.1297 27.7524 83.5599 27.6323 83.8481 27.3922C84.1402 27.1481 84.2863 26.8639 84.2863 26.5397C84.2863 26.3316 84.2243 26.1555 84.1002 26.0115C83.9802 25.8634 83.7681 25.7353 83.4639 25.6273C83.2558 25.5552 82.7815 25.4272 82.0412 25.2431C81.0887 25.0069 80.4203 24.7168 80.0361 24.3726C79.4958 23.8884 79.2257 23.298 79.2257 22.6017C79.2257 22.1534 79.3517 21.7352 79.6039 21.347C79.86 20.9548 80.2262 20.6567 80.7025 20.4526C81.1827 20.2484 81.761 20.1464 82.4374 20.1464C83.5419 20.1464 84.3724 20.3885 84.9287 20.8728C85.489 21.357 85.7831 22.0034 85.8111 22.8118L84.0342 22.8898C83.9582 22.4376 83.7941 22.1134 83.5419 21.9173C83.2938 21.7172 82.9196 21.6172 82.4193 21.6172C81.9031 21.6172 81.4989 21.7232 81.2067 21.9353C81.0186 22.0714 80.9246 22.2535 80.9246 22.4816C80.9246 22.6897 81.0126 22.8678 81.1887 23.0159C81.4128 23.204 81.9571 23.4001 82.8216 23.6042C83.686 23.8083 84.3243 24.0204 84.7366 24.2405C85.1528 24.4566 85.4769 24.7548 85.7091 25.135C85.9452 25.5112 86.0633 25.9774 86.0633 26.5337C86.0633 27.038 85.9232 27.5102 85.643 27.9505C85.3629 28.3907 84.9667 28.7189 84.4544 28.935C83.9421 29.1471 83.3038 29.2532 82.5394 29.2532C81.4268 29.2532 80.5724 28.997 79.9761 28.4848C79.3798 27.9685 79.0236 27.2181 78.9075 26.2336Z" fill="white"/>
</g>
<defs>
<clipPath id="clip0_1_10">
<rect width="151.633" height="32.0352" fill="white"/>
</clipPath>
</defs>
</svg>
