<svg width="152" height="33" viewBox="0 0 152 33" fill="none" xmlns="http://www.w3.org/2000/svg">
<g clip-path="url(#clip0_170_18)">
<path d="M112.271 7.12214C112.271 8.07874 112.651 8.99616 113.328 9.67258C114.004 10.349 114.921 10.729 115.878 10.729C116.835 10.729 117.752 10.349 118.428 9.67258C119.105 8.99616 119.485 8.07874 119.485 7.12214C119.485 6.16554 119.105 5.24811 118.428 4.57169C117.752 3.89528 116.835 3.51527 115.878 3.51527C114.921 3.51527 114.004 3.89528 113.328 4.57169C112.651 5.24811 112.271 6.16554 112.271 7.12214ZM120 7.12214C120 8.2154 119.566 9.26388 118.793 10.0369C118.02 10.81 116.971 11.2443 115.878 11.2443C114.785 11.2443 113.736 10.81 112.963 10.0369C112.19 9.26388 111.756 8.2154 111.756 7.12214C111.756 6.02888 112.19 4.9804 112.963 4.20735C113.736 3.4343 114.785 3 115.878 3C116.971 3 118.02 3.4343 118.793 4.20735C119.566 4.9804 120 6.02888 120 7.12214ZM114.59 5.0621H116.192C117.073 5.0621 117.605 5.56345 117.605 6.32966C117.605 6.91603 117.261 7.32927 116.834 7.48385L117.681 9.18321H116.898L116.146 7.59824H115.278V9.18321H114.59V5.0621ZM115.278 5.62374V7.05464H116.076C116.589 7.05464 116.886 6.81607 116.886 6.35387C116.886 5.88343 116.579 5.62374 116.094 5.62374H115.278Z" fill="black"/>
</g>
<path fill-rule="evenodd" clip-rule="evenodd" d="M33.4791 3.00239L43.1037 13.7556V3.00239H46.4724V16.7937C46.4724 18.0683 45.6099 18.8494 44.4838 18.8494H44.297H43.1061L33.4815 8.12022V18.8494H30.1846H30.1127H17.9962H16.0651H14.6275V9.33976H15.2552H17.9962H28.4499L25.5723 12.7085H17.9986V15.483H30.1151V5.05815C30.1151 3.78349 30.9777 3.00239 32.1038 3.00239H32.25H33.4791ZM64.6173 3.00239H80.2893L77.4118 6.37115H64.6173V16.7961C64.6173 18.0707 63.7547 18.8518 62.6286 18.8518H62.4417H61.2509L51.6262 8.12261V18.8518H48.2575V5.06055C48.2575 3.78588 49.12 3.00479 50.2461 3.00479H50.3923H51.6238L61.2485 13.758V3.00479H62.1878H64.6173V3.00239ZM94.9963 3.00239H92.0586H88.6897H81.9834L84.8609 6.37115H88.6872V15.483H69.8333V12.7085H77.407L80.2846 9.33976H69.8309H67.0899H66.4621V18.8494H67.8998H69.8309H88.6849H90.41H92.054V6.36875H94.9908V18.8494H98.36V12.6103H104.666V18.8494H108.035V3H104.666V9.23914H98.36V3H95.1731H94.9963V3.00239ZM0 3.00239H3.36875V9.34216H4.16901L10.1949 3.03354L10.1997 3.00239H10.226H28.3013H28.4499L25.5723 6.37115H25.4238H11.1653L6.7998 10.9714L14.2801 18.8518H13.4558H10.9065H10.0799L4.14745 12.6007H3.36636V18.8518H0V3.00239Z" fill="#ED1C24"/>
<path d="M29.3135 23.5696H32.2885C32.9594 23.5696 33.4708 23.6209 33.8227 23.7236C34.2956 23.8628 34.7007 24.1104 35.0379 24.466C35.3752 24.8216 35.6319 25.2578 35.8079 25.7747C35.9838 26.2879 36.0718 26.9222 36.0718 27.6774C36.0718 28.341 35.9893 28.9128 35.8243 29.3931C35.6227 29.9796 35.3349 30.4544 34.961 30.8173C34.6787 31.0923 34.2974 31.3068 33.8171 31.4608C33.4579 31.5744 32.9777 31.6312 32.3764 31.6312H29.3135V23.5696ZM30.9412 24.9334V30.273H32.1565C32.6111 30.273 32.9391 30.2473 33.1408 30.196C33.4047 30.13 33.6228 30.0182 33.7952 29.8606C33.9711 29.7029 34.1141 29.4444 34.2241 29.0851C34.3341 28.7222 34.3891 28.2291 34.3891 27.6059C34.3891 26.9827 34.3341 26.5042 34.2241 26.1707C34.1141 25.8371 33.9601 25.5767 33.7622 25.3898C33.5642 25.2028 33.3131 25.0763 33.0088 25.0104C32.7816 24.9591 32.3361 24.9334 31.6725 24.9334H30.9412ZM37.4575 31.6312V23.5696H43.435V24.9334H39.0853V26.7206H43.1326V28.0788H39.0853V30.273H43.589V31.6312H37.4575ZM44.5569 29.0082L46.1406 28.8542C46.2359 29.3858 46.4283 29.7762 46.718 30.0255C47.0113 30.2748 47.4054 30.3995 47.9003 30.3995C48.4245 30.3995 48.8186 30.2894 49.0826 30.0695C49.3502 29.8459 49.484 29.5856 49.484 29.2886C49.484 29.098 49.4272 28.9366 49.3135 28.8047C49.2035 28.6691 49.0092 28.5517 48.7307 28.4528C48.54 28.3868 48.1056 28.2695 47.4273 28.1009C46.5548 27.8845 45.9426 27.6188 45.5907 27.3035C45.0958 26.8599 44.8483 26.3191 44.8483 25.6813C44.8483 25.2706 44.9638 24.8875 45.1947 24.5319C45.4294 24.1726 45.7648 23.8996 46.2011 23.7126C46.641 23.5256 47.1708 23.4321 47.7903 23.4321C48.8021 23.4321 49.5628 23.6539 50.0724 24.0975C50.5856 24.5411 50.8551 25.1332 50.8808 25.8737L49.2531 25.9452C49.1834 25.5309 49.0331 25.234 48.8021 25.0543C48.5749 24.871 48.2321 24.7794 47.7738 24.7794C47.3008 24.7794 46.9306 24.8765 46.663 25.0708C46.4907 25.1955 46.4045 25.3623 46.4045 25.5712C46.4045 25.7619 46.4852 25.925 46.6465 26.0607C46.8518 26.233 47.3504 26.4126 48.1422 26.5996C48.9341 26.7865 49.5188 26.9808 49.8964 27.1824C50.2777 27.3804 50.5746 27.6536 50.7872 28.0018C51.0036 28.3464 51.1117 28.7735 51.1117 29.2831C51.1117 29.745 50.9834 30.1776 50.7268 30.5809C50.4702 30.9842 50.1072 31.2848 49.638 31.4828C49.1687 31.677 48.584 31.7742 47.8838 31.7742C46.8646 31.7742 46.082 31.5395 45.5356 31.0704C44.9894 30.5974 44.6631 29.91 44.5569 29.0082ZM52.4315 31.6312V23.5696H54.0592V31.6312H52.4315ZM59.3658 28.6672V27.309H62.8742V30.5204C62.5332 30.8503 62.0384 31.1418 61.3895 31.3947C60.7442 31.6441 60.0898 31.7687 59.4263 31.7687C58.5831 31.7687 57.8481 31.5928 57.2212 31.2408C56.5943 30.8852 56.1232 30.3793 55.8079 29.7231C55.4926 29.0632 55.335 28.3464 55.335 27.573C55.335 26.7334 55.5109 25.9874 55.8629 25.3348C56.2148 24.6822 56.7299 24.1818 57.4081 23.8335C57.925 23.566 58.5685 23.4321 59.3383 23.4321C60.3392 23.4321 61.12 23.6429 61.681 24.0646C62.2455 24.4824 62.6084 25.0617 62.7698 25.8022L61.1531 26.1046C61.0394 25.7087 60.8249 25.3971 60.5096 25.1698C60.198 24.9389 59.8076 24.8234 59.3383 24.8234C58.6271 24.8234 58.0607 25.0488 57.6391 25.4998C57.2212 25.9507 57.0122 26.6197 57.0122 27.5069C57.0122 28.4638 57.2248 29.1823 57.6502 29.6626C58.0754 30.1391 58.6326 30.3775 59.3218 30.3775C59.6628 30.3775 60.0037 30.3114 60.3447 30.1794C60.6893 30.0439 60.9844 29.8807 61.23 29.6901V28.6672H59.3658ZM64.3975 31.6312V23.5696H65.9812L69.2806 28.9531V23.5696H70.7929V31.6312H69.1596L65.9097 26.3741V31.6312H64.3975ZM72.1071 29.0082L73.6909 28.8542C73.7862 29.3858 73.9787 29.7762 74.2682 30.0255C74.5615 30.2748 74.9556 30.3995 75.4506 30.3995C75.9748 30.3995 76.3689 30.2894 76.6329 30.0695C76.9004 29.8459 77.0343 29.5856 77.0343 29.2886C77.0343 29.098 76.9775 28.9366 76.8638 28.8047C76.7539 28.6691 76.5596 28.5517 76.2809 28.4528C76.0903 28.3868 75.6558 28.2695 74.9777 28.1009C74.1052 27.8845 73.4929 27.6188 73.141 27.3035C72.646 26.8599 72.3986 26.3191 72.3986 25.6813C72.3986 25.2706 72.514 24.8875 72.745 24.5319C72.9796 24.1726 73.3151 23.8996 73.7514 23.7126C74.1913 23.5256 74.721 23.4321 75.3406 23.4321C76.3524 23.4321 77.1131 23.6539 77.6227 24.0975C78.136 24.5411 78.4054 25.1332 78.431 25.8737L76.8033 25.9452C76.7337 25.5309 76.5834 25.234 76.3524 25.0543C76.1251 24.871 75.7823 24.7794 75.324 24.7794C74.8512 24.7794 74.4809 24.8765 74.2133 25.0708C74.041 25.1955 73.9549 25.3623 73.9549 25.5712C73.9549 25.7619 74.0355 25.925 74.1968 26.0607C74.4021 26.233 74.9007 26.4126 75.6926 26.5996C76.4844 26.7865 77.0691 26.9808 77.4468 27.1824C77.828 27.3804 78.1249 27.6536 78.3376 28.0018C78.5539 28.3464 78.6621 28.7735 78.6621 29.2831C78.6621 29.745 78.5337 30.1776 78.277 30.5809C78.0205 30.9842 77.6575 31.2848 77.1883 31.4828C76.719 31.677 76.1343 31.7742 75.4341 31.7742C74.4149 31.7742 73.6322 31.5395 73.086 31.0704C72.5398 30.5974 72.2135 29.91 72.1071 29.0082Z" fill="black"/>
<defs>
<clipPath id="clip0_170_18">
<rect width="8.24427" height="8.24427" fill="white" transform="translate(111.756 3)"/>
</clipPath>
</defs>
</svg>
