<svg width="152" height="33" viewBox="0 0 152 33" fill="none" xmlns="http://www.w3.org/2000/svg">
<g clip-path="url(#clip0_1_9)">
<path fill-rule="evenodd" clip-rule="evenodd" d="M36.9147 0.00261019L47.4216 11.7415V0.00261019H51.0991V15.0581C51.0991 16.4496 50.1575 17.3023 48.9282 17.3023H48.7242H47.4242L36.9173 5.58957V17.3023H33.3182H33.2397H20.0126H17.9044H16.335V6.92091H17.0203H20.0126H31.4245L28.2831 10.5985H20.0152V13.6273H33.2423V2.24681C33.2423 0.855305 34.184 0.00261019 35.4133 0.00261019H35.5729H36.9147ZM70.9072 0.00261019H88.0159L84.8746 3.68017H70.9072V15.0607C70.9072 16.4522 69.9656 17.3049 68.7362 17.3049H68.5322H67.2323L56.7253 5.59218V17.3049H53.0478V2.24943C53.0478 0.857923 53.9894 0.00522835 55.2187 0.00522835H55.3783H56.7227L67.2296 11.7441V0.00522835H68.255H70.9072V0.00261019ZM104.071 0.00261019H100.864H97.1863H89.8652L93.0065 3.68017H97.1836V13.6273H76.6014V10.5985H84.8693L88.0107 6.92091H76.5988H73.6065H72.9212V17.3023H74.4906H76.5988H97.181H99.0643H100.859V3.67755H104.065V17.3023H107.743V10.4912H114.627V17.3023H118.305V0H114.627V6.81106H107.743V0H104.264H104.071V0.00261019ZM0.366699 0.00261019H4.04425V6.92353H4.91787L11.4961 0.0366144L11.5014 0.00261019H11.5301H31.2623H31.4245L28.2831 3.68017H28.121H12.5555L7.78981 8.70214L15.9558 17.3049H15.056H12.273H11.3706L4.89433 10.4808H4.04164V17.3049H0.366699V0.00261019Z" fill="#ED1C24"/>
<path d="M32.5578 20.2965H35.8055C36.5379 20.2965 37.0962 20.3525 37.4804 20.4646C37.9966 20.6166 38.4389 20.8868 38.807 21.275C39.1752 21.6632 39.4554 22.1394 39.6475 22.7037C39.8396 23.264 39.9356 23.9564 39.9356 24.7808C39.9356 25.5052 39.8456 26.1295 39.6655 26.6538C39.4454 27.2941 39.1312 27.8124 38.723 28.2086C38.4148 28.5088 37.9986 28.7429 37.4743 28.911C37.0821 29.035 36.5579 29.0971 35.9015 29.0971H32.5578V20.2965ZM34.3347 21.7853V27.6143H35.6614C36.1577 27.6143 36.5158 27.5863 36.736 27.5303C37.0241 27.4582 37.2622 27.3362 37.4503 27.1641C37.6424 26.992 37.7985 26.7098 37.9186 26.3176C38.0386 25.9214 38.0987 25.3831 38.0987 24.7028C38.0987 24.0224 38.0386 23.5001 37.9186 23.136C37.7985 22.7718 37.6304 22.4876 37.4143 22.2835C37.1982 22.0794 36.9241 21.9413 36.5919 21.8693C36.3438 21.8133 35.8575 21.7853 35.1331 21.7853H34.3347ZM41.4484 29.0971V20.2965H47.9738V21.7853H43.2254V23.7363H47.6437V25.219H43.2254V27.6143H48.1419V29.0971H41.4484ZM49.1985 26.2336L50.9274 26.0655C51.0314 26.6458 51.2415 27.072 51.5577 27.3442C51.8779 27.6163 52.3081 27.7524 52.8484 27.7524C53.4207 27.7524 53.8509 27.6323 54.1391 27.3922C54.4312 27.1481 54.5773 26.8639 54.5773 26.5397C54.5773 26.3316 54.5153 26.1555 54.3912 26.0115C54.2711 25.8634 54.059 25.7353 53.7549 25.6273C53.5468 25.5552 53.0725 25.4272 52.3321 25.2431C51.3796 25.0069 50.7113 24.7168 50.3271 24.3726C49.7868 23.8884 49.5166 23.298 49.5166 22.6017C49.5166 22.1534 49.6427 21.7352 49.8948 21.347C50.151 20.9548 50.5172 20.6567 50.9934 20.4526C51.4737 20.2484 52.052 20.1464 52.7283 20.1464C53.8329 20.1464 54.6633 20.3885 55.2196 20.8728C55.7799 21.357 56.0741 22.0034 56.1021 22.8118L54.3252 22.8898C54.2491 22.4376 54.085 22.1134 53.8329 21.9173C53.5848 21.7172 53.2106 21.6172 52.7103 21.6172C52.194 21.6172 51.7898 21.7232 51.4977 21.9353C51.3096 22.0714 51.2155 22.2535 51.2155 22.4816C51.2155 22.6897 51.3036 22.8678 51.4797 23.0159C51.7038 23.204 52.2481 23.4001 53.1125 23.6042C53.977 23.8083 54.6153 24.0204 55.0275 24.2405C55.4437 24.4566 55.7679 24.7548 56 25.135C56.2362 25.5112 56.3542 25.9774 56.3542 26.5337C56.3542 27.038 56.2141 27.5102 55.934 27.9505C55.6539 28.3907 55.2576 28.7189 54.7454 28.935C54.2331 29.1471 53.5948 29.2532 52.8304 29.2532C51.7178 29.2532 50.8634 28.997 50.267 28.4848C49.6707 27.9685 49.3145 27.2181 49.1985 26.2336ZM57.795 29.0971V20.2965H59.5719V29.0971H57.795ZM65.3649 25.8614V24.3786H69.1949V27.8844C68.8227 28.2446 68.2825 28.5628 67.5741 28.8389C66.8697 29.1111 66.1553 29.2472 65.431 29.2472C64.5105 29.2472 63.7081 29.0551 63.0237 28.6709C62.3394 28.2827 61.8251 27.7304 61.4809 27.014C61.1367 26.2936 60.9646 25.5112 60.9646 24.6668C60.9646 23.7503 61.1567 22.9359 61.5409 22.2235C61.9251 21.5111 62.4874 20.9648 63.2278 20.5846C63.7921 20.2925 64.4945 20.1464 65.3349 20.1464C66.4275 20.1464 67.2799 20.3765 67.8923 20.8368C68.5086 21.293 68.9048 21.9253 69.0809 22.7337L67.316 23.0639C67.1919 22.6317 66.9578 22.2915 66.6136 22.0434C66.2734 21.7913 65.8472 21.6652 65.3349 21.6652C64.5585 21.6652 63.9402 21.9113 63.4799 22.4036C63.0237 22.8958 62.7956 23.6262 62.7956 24.5947C62.7956 25.6393 63.0277 26.4237 63.492 26.948C63.9562 27.4682 64.5645 27.7284 65.3169 27.7284C65.6891 27.7284 66.0613 27.6563 66.4335 27.5122C66.8097 27.3642 67.1319 27.1861 67.4 26.978V25.8614H65.3649ZM70.8578 29.0971V20.2965H72.5867L76.1886 26.1735V20.2965H77.8395V29.0971H76.0565L72.5087 23.3581V29.0971H70.8578ZM79.2742 26.2336L81.0031 26.0655C81.1072 26.6458 81.3173 27.072 81.6334 27.3442C81.9536 27.6163 82.3838 27.7524 82.9241 27.7524C83.4964 27.7524 83.9266 27.6323 84.2148 27.3922C84.5069 27.1481 84.653 26.8639 84.653 26.5397C84.653 26.3316 84.591 26.1555 84.4669 26.0115C84.3469 25.8634 84.1348 25.7353 83.8306 25.6273C83.6225 25.5552 83.1482 25.4272 82.4079 25.2431C81.4554 25.0069 80.787 24.7168 80.4028 24.3726C79.8625 23.8884 79.5924 23.298 79.5924 22.6017C79.5924 22.1534 79.7184 21.7352 79.9706 21.347C80.2267 20.9548 80.5929 20.6567 81.0692 20.4526C81.5494 20.2484 82.1277 20.1464 82.8041 20.1464C83.9086 20.1464 84.7391 20.3885 85.2954 20.8728C85.8557 21.357 86.1498 22.0034 86.1778 22.8118L84.4009 22.8898C84.3249 22.4376 84.1608 22.1134 83.9086 21.9173C83.6605 21.7172 83.2863 21.6172 82.786 21.6172C82.2698 21.6172 81.8656 21.7232 81.5734 21.9353C81.3853 22.0714 81.2913 22.2535 81.2913 22.4816C81.2913 22.6897 81.3793 22.8678 81.5554 23.0159C81.7795 23.204 82.3238 23.4001 83.1883 23.6042C84.0527 23.8083 84.691 24.0204 85.1033 24.2405C85.5195 24.4566 85.8436 24.7548 86.0758 25.135C86.3119 25.5112 86.43 25.9774 86.43 26.5337C86.43 27.038 86.2899 27.5102 86.0097 27.9505C85.7296 28.3907 85.3334 28.7189 84.8211 28.935C84.3088 29.1471 83.6705 29.2532 82.9061 29.2532C81.7935 29.2532 80.9391 28.997 80.3428 28.4848C79.7465 27.9685 79.3903 27.2181 79.2742 26.2336Z" fill="black"/>
</g>
<defs>
<clipPath id="clip0_1_9">
<rect width="151.633" height="32.0352" fill="white" transform="translate(0.366699)"/>
</clipPath>
</defs>
</svg>
